<svg width="325" height="140" viewBox="0 0 325 140" fill="none" xmlns="http://www.w3.org/2000/svg">
<path d="M51 85.428C51 78.4242 51 74.9223 52.3538 72.1928C53.4956 69.8906 55.2941 67.9785 57.5221 66.698C60.1637 65.1798 63.659 64.9656 70.6497 64.5372L161 59L251.35 64.5372C258.341 64.9656 261.836 65.1798 264.478 66.698C266.706 67.9785 268.504 69.8906 269.646 72.1928C271 74.9223 271 78.4242 271 85.428V113.469C271 120.473 271 123.975 269.646 126.704C268.504 129.006 266.706 130.918 264.478 132.199C261.836 133.717 258.341 133.931 251.35 134.36L161 139.897L70.6497 134.36C63.659 133.931 60.1637 133.717 57.5221 132.199C55.2941 130.918 53.4956 129.006 52.3538 126.704C51 123.975 51 120.473 51 113.469V85.428Z" fill="#8a8a91"/>
<path d="M25 56.1761C25 49.1757 25 45.6755 26.3528 42.9468C27.4939 40.6453 29.2912 38.7334 31.518 37.4525C34.158 35.9339 37.6516 35.7179 44.6386 35.286L162.5 28L280.361 35.286C287.348 35.7179 290.842 35.9339 293.482 37.4525C295.709 38.7334 297.506 40.6453 298.647 42.9468C300 45.6755 300 49.1757 300 56.1761V101.824C300 108.824 300 112.324 298.647 115.053C297.506 117.355 295.709 119.267 293.482 120.548C290.842 122.066 287.348 122.282 280.361 122.714L162.5 130L44.6386 122.714C37.6516 122.282 34.158 122.066 31.518 120.548C29.2912 119.267 27.4939 117.355 26.3528 115.053C25 112.324 25 108.824 25 101.824V56.1761Z" fill="#67676c"/>
<path d="M0 29.6816C0 22.6794 0 19.1783 1.35332 16.4492C2.49478 14.1473 4.29275 12.2353 6.52017 10.9546C9.16102 9.43624 12.6555 9.2212 19.6444 8.79111L162.5 0L305.356 8.79111C312.345 9.2212 315.839 9.43624 318.48 10.9546C320.707 12.2353 322.505 14.1473 323.647 16.4492C325 19.1783 325 22.6794 325 29.6816V90.3184C325 97.3206 325 100.822 323.647 103.551C322.505 105.853 320.707 107.765 318.48 109.045C315.839 110.564 312.345 110.779 305.356 111.209L162.5 120L19.6444 111.209C12.6555 110.779 9.16102 110.564 6.52017 109.045C4.29275 107.765 2.49478 105.853 1.35332 103.551C0 100.822 0 97.3206 0 90.3184V29.6816Z" fill="#323233"/>
</svg>
