<svg width="22" height="23" viewBox="0 0 22 23" fill="none" xmlns="http://www.w3.org/2000/svg">
<path fill-rule="evenodd" clip-rule="evenodd" d="M11 3.37109C9.48769 3.37109 8.26172 4.59706 8.26172 6.10938C8.26172 7.62169 9.48769 8.84766 11 8.84766C12.5123 8.84766 13.7383 7.62169 13.7383 6.10938C13.7383 4.59706 12.5123 3.37109 11 3.37109ZM6.26172 6.10938C6.26172 3.49249 8.38312 1.37109 11 1.37109C13.6169 1.37109 15.7383 3.49249 15.7383 6.10938C15.7383 8.72626 13.6169 10.8477 11 10.8477C8.38312 10.8477 6.26172 8.72626 6.26172 6.10938Z" fill="black"/>
<path fill-rule="evenodd" clip-rule="evenodd" d="M11 14.2852C6.99378 14.2852 3.74609 17.5328 3.74609 21.5391C3.74609 22.0913 3.29838 22.5391 2.74609 22.5391C2.19381 22.5391 1.74609 22.0913 1.74609 21.5391C1.74609 16.4283 5.88921 12.2852 11 12.2852C16.1108 12.2852 20.2539 16.4283 20.2539 21.5391C20.2539 22.0913 19.8062 22.5391 19.2539 22.5391C18.7016 22.5391 18.2539 22.0913 18.2539 21.5391C18.2539 17.5328 15.0062 14.2852 11 14.2852Z" fill="black"/>
</svg>
