<svg width="22" height="23" viewBox="0 0 22 23" fill="none" xmlns="http://www.w3.org/2000/svg">
<path d="M4.58333 21.1218H17.4167C18.4278 21.1218 19.25 20.2995 19.25 19.2885V9.20512C19.25 8.962 19.1534 8.72885 18.9815 8.55694C18.8096 8.38503 18.5764 8.28845 18.3333 8.28845H15.5833V7.37179C15.5833 4.84454 13.5273 2.78845 11 2.78845C8.47275 2.78845 6.41667 4.84454 6.41667 7.37179V8.28845H3.66667C3.42355 8.28845 3.19039 8.38503 3.01849 8.55694C2.84658 8.72885 2.75 8.962 2.75 9.20512V19.2885C2.75 20.2995 3.57225 21.1218 4.58333 21.1218ZM8.25 7.37179C8.25 5.85562 9.48383 4.62179 11 4.62179C12.5162 4.62179 13.75 5.85562 13.75 7.37179V8.28845H8.25V7.37179ZM4.58333 10.1218H6.41667V11.9551H8.25V10.1218H13.75V11.9551H15.5833V10.1218H17.4167L17.4185 19.2885H4.58333V10.1218Z" fill="black"/>
</svg>
