<svg width="23" height="23" viewBox="0 0 23 23" fill="none" xmlns="http://www.w3.org/2000/svg">
<path d="M1.875 4.39258C1.875 3.84557 2.0923 3.32096 2.47909 2.93417C2.86589 2.54738 3.39049 2.33008 3.9375 2.33008H8.0625C8.60951 2.33008 9.13411 2.54738 9.52091 2.93417C9.9077 3.32096 10.125 3.84557 10.125 4.39258V8.51758C10.125 9.06459 9.9077 9.58919 9.52091 9.97599C9.13411 10.3628 8.60951 10.5801 8.0625 10.5801H3.9375C3.39049 10.5801 2.86589 10.3628 2.47909 9.97599C2.0923 9.58919 1.875 9.06459 1.875 8.51758V4.39258ZM3.9375 3.70508C3.75516 3.70508 3.5803 3.77751 3.45136 3.90644C3.32243 4.03537 3.25 4.21024 3.25 4.39258V8.51758C3.25 8.69991 3.32243 8.87478 3.45136 9.00371C3.5803 9.13265 3.75516 9.20508 3.9375 9.20508H8.0625C8.24484 9.20508 8.4197 9.13265 8.54864 9.00371C8.67757 8.87478 8.75 8.69991 8.75 8.51758V4.39258C8.75 4.21024 8.67757 4.03537 8.54864 3.90644C8.4197 3.77751 8.24484 3.70508 8.0625 3.70508H3.9375ZM12.875 4.39258C12.875 3.84557 13.0923 3.32096 13.4791 2.93417C13.8659 2.54738 14.3905 2.33008 14.9375 2.33008H19.0625C19.6095 2.33008 20.1341 2.54738 20.5209 2.93417C20.9077 3.32096 21.125 3.84557 21.125 4.39258V8.51758C21.125 9.06459 20.9077 9.58919 20.5209 9.97599C20.1341 10.3628 19.6095 10.5801 19.0625 10.5801H14.9375C14.3905 10.5801 13.8659 10.3628 13.4791 9.97599C13.0923 9.58919 12.875 9.06459 12.875 8.51758V4.39258ZM14.9375 3.70508C14.7552 3.70508 14.5803 3.77751 14.4514 3.90644C14.3224 4.03537 14.25 4.21024 14.25 4.39258V8.51758C14.25 8.69991 14.3224 8.87478 14.4514 9.00371C14.5803 9.13265 14.7552 9.20508 14.9375 9.20508H19.0625C19.2448 9.20508 19.4197 9.13265 19.5486 9.00371C19.6776 8.87478 19.75 8.69991 19.75 8.51758V4.39258C19.75 4.21024 19.6776 4.03537 19.5486 3.90644C19.4197 3.77751 19.2448 3.70508 19.0625 3.70508H14.9375ZM1.875 15.3926C1.875 14.8456 2.0923 14.321 2.47909 13.9342C2.86589 13.5474 3.39049 13.3301 3.9375 13.3301H8.0625C8.60951 13.3301 9.13411 13.5474 9.52091 13.9342C9.9077 14.321 10.125 14.8456 10.125 15.3926V19.5176C10.125 20.0646 9.9077 20.5892 9.52091 20.976C9.13411 21.3628 8.60951 21.5801 8.0625 21.5801H3.9375C3.39049 21.5801 2.86589 21.3628 2.47909 20.976C2.0923 20.5892 1.875 20.0646 1.875 19.5176V15.3926ZM3.9375 14.7051C3.75516 14.7051 3.5803 14.7775 3.45136 14.9064C3.32243 15.0354 3.25 15.2102 3.25 15.3926V19.5176C3.25 19.6999 3.32243 19.8748 3.45136 20.0037C3.5803 20.1326 3.75516 20.2051 3.9375 20.2051H8.0625C8.24484 20.2051 8.4197 20.1326 8.54864 20.0037C8.67757 19.8748 8.75 19.6999 8.75 19.5176V15.3926C8.75 15.2102 8.67757 15.0354 8.54864 14.9064C8.4197 14.7775 8.24484 14.7051 8.0625 14.7051H3.9375ZM12.875 15.3926C12.875 14.8456 13.0923 14.321 13.4791 13.9342C13.8659 13.5474 14.3905 13.3301 14.9375 13.3301H19.0625C19.6095 13.3301 20.1341 13.5474 20.5209 13.9342C20.9077 14.321 21.125 14.8456 21.125 15.3926V19.5176C21.125 20.0646 20.9077 20.5892 20.5209 20.976C20.1341 21.3628 19.6095 21.5801 19.0625 21.5801H14.9375C14.3905 21.5801 13.8659 21.3628 13.4791 20.976C13.0923 20.5892 12.875 20.0646 12.875 19.5176V15.3926ZM14.9375 14.7051C14.7552 14.7051 14.5803 14.7775 14.4514 14.9064C14.3224 15.0354 14.25 15.2102 14.25 15.3926V19.5176C14.25 19.6999 14.3224 19.8748 14.4514 20.0037C14.5803 20.1326 14.7552 20.2051 14.9375 20.2051H19.0625C19.2448 20.2051 19.4197 20.1326 19.5486 20.0037C19.6776 19.8748 19.75 19.6999 19.75 19.5176V15.3926C19.75 15.2102 19.6776 15.0354 19.5486 14.9064C19.4197 14.7775 19.2448 14.7051 19.0625 14.7051H14.9375Z" fill="black"/>
</svg>
