<svg width="22" height="23" viewBox="0 0 22 23" fill="none" xmlns="http://www.w3.org/2000/svg">
<path d="M10.03 3.2961C10.3011 3.07592 10.6448 2.95508 11 2.95508C11.3552 2.95508 11.6989 3.07592 11.97 3.2961L19.47 9.39953C19.6361 9.53458 19.7695 9.70269 19.861 9.89219C19.9526 10.0817 20 10.288 20 10.4969V19.5163C20 19.8979 19.842 20.2638 19.5607 20.5337C19.2794 20.8035 18.8978 20.9551 18.5 20.9551H12.75C12.5511 20.9551 12.3603 20.8793 12.2197 20.7444C12.079 20.6095 12 20.4265 12 20.2357V14.2406H10V20.2357C10 20.4265 9.92098 20.6095 9.78033 20.7444C9.63968 20.8793 9.44891 20.9551 9.25 20.9551H3.5C3.10218 20.9551 2.72064 20.8035 2.43934 20.5337C2.15804 20.2638 2 19.8979 2 19.5163V10.4969C2 10.0748 2.194 9.6729 2.53 9.39953L10.03 3.2961ZM11 4.39344L3.5 10.4969V19.5163H8.5V13.5212C8.5 13.3304 8.57902 13.1475 8.71967 13.0125C8.86032 12.8776 9.05109 12.8018 9.25 12.8018H12.75C12.9489 12.8018 13.1397 12.8776 13.2803 13.0125C13.421 13.1475 13.5 13.3304 13.5 13.5212V19.5163H18.5V10.4969L11 4.39344Z" fill="black"/>
</svg>
