<svg width="22" height="23" viewBox="0 0 22 23" fill="none" xmlns="http://www.w3.org/2000/svg">
<path d="M19.8301 7.04806C19.5421 6.38127 19.1269 5.77702 18.6076 5.26916C18.088 4.75977 17.4753 4.35498 16.8029 4.07677C16.1057 3.78715 15.3579 3.6389 14.6029 3.64064C13.5437 3.64064 12.5104 3.93068 11.6123 4.47853C11.3975 4.60959 11.1934 4.75353 11 4.91037C10.8066 4.75353 10.6025 4.60959 10.3877 4.47853C9.48965 3.93068 8.45625 3.64064 7.39707 3.64064C6.63437 3.64064 5.89531 3.78673 5.19707 4.07677C4.52246 4.35607 3.91445 4.75783 3.39238 5.26916C2.87245 5.77645 2.45712 6.38084 2.16992 7.04806C1.87129 7.74201 1.71875 8.47892 1.71875 9.23732C1.71875 9.95275 1.86484 10.6983 2.15488 11.4567C2.39766 12.0904 2.7457 12.7479 3.19043 13.4117C3.89512 14.4623 4.86406 15.558 6.06719 16.6688C8.06094 18.51 10.0354 19.7819 10.1191 19.8334L10.6283 20.16C10.8539 20.3039 11.1439 20.3039 11.3695 20.16L11.8787 19.8334C11.9625 19.7797 13.9348 18.51 15.9307 16.6688C17.1338 15.558 18.1027 14.4623 18.8074 13.4117C19.2521 12.7479 19.6023 12.0904 19.843 11.4567C20.133 10.6983 20.2791 9.95275 20.2791 9.23732C20.2812 8.47892 20.1287 7.74201 19.8301 7.04806ZM11 18.4606C11 18.4606 3.35156 13.56 3.35156 9.23732C3.35156 7.04806 5.16269 5.27345 7.39707 5.27345C8.96758 5.27345 10.3297 6.15001 11 7.43048C11.6703 6.15001 13.0324 5.27345 14.6029 5.27345C16.8373 5.27345 18.6484 7.04806 18.6484 9.23732C18.6484 13.56 11 18.4606 11 18.4606Z" fill="black"/>
</svg>
